<?xml version="1.0" encoding="UTF-8" standalone="no"?>
<svg
   xmlns:dc="http://purl.org/dc/elements/1.1/"
   xmlns:cc="http://creativecommons.org/ns#"
   xmlns:rdf="http://www.w3.org/1999/02/22-rdf-syntax-ns#"
   xmlns:svg="http://www.w3.org/2000/svg"
   xmlns="http://www.w3.org/2000/svg"
   id="svg8"
   version="1.1"
   viewBox="0 0 2400 2400"
   height="2400"
   width="2400">
  <defs
     id="defs2" />
  <metadata
     id="metadata5">
    <rdf:RDF>
      <cc:Work
         rdf:about="">
        <dc:format>image/svg+xml</dc:format>
        <dc:type
           rdf:resource="http://purl.org/dc/dcmitype/StillImage" />
        <dc:title></dc:title>
      </cc:Work>
    </rdf:RDF>
  </metadata>
  <g
     id="layer2">
    <path
       id="path2370"
       d="M 200 200 A 100.01 100.01 0 1 0 200 400 L 420.44922 400 L 702.56055 1622.4863 A 100.01 100.01 0 0 0 800 1700 L 1900 1700 A 100.01 100.01 0 1 0 1900 1500 L 879.55078 1500 L 833.39648 1300 L 2000 1300 C 2043.0423 1300 2081.2549 1272.4555 2094.8691 1231.623 L 2294.8691 631.62305 C 2316.4433 566.87115 2268.2514 500.00888 2200 500 L 648.7832 500 L 597.43945 277.51367 A 100.01 100.01 0 0 0 500 200 L 200 200 z M 800 1800 A 200 200 0 0 0 600 2000 A 200 200 0 0 0 800 2200 A 200 200 0 0 0 1000 2000 A 200 200 0 0 0 800 1800 z M 1800 1800 A 200 200 0 0 0 1600 2000 A 200 200 0 0 0 1800 2200 A 200 200 0 0 0 2000 2000 A 200 200 0 0 0 1800 1800 z "
       style="color:#000000;font-style:normal;font-variant:normal;font-weight:normal;font-stretch:normal;font-size:medium;line-height:normal;font-family:sans-serif;font-variant-ligatures:normal;font-variant-position:normal;font-variant-caps:normal;font-variant-numeric:normal;font-variant-alternates:normal;font-feature-settings:normal;text-indent:0;text-align:start;text-decoration:none;text-decoration-line:none;text-decoration-style:solid;text-decoration-color:#000000;letter-spacing:normal;word-spacing:normal;text-transform:none;writing-mode:lr-tb;direction:ltr;text-orientation:mixed;dominant-baseline:auto;baseline-shift:baseline;text-anchor:start;white-space:normal;shape-padding:0;clip-rule:nonzero;display:inline;overflow:visible;visibility:visible;opacity:1;isolation:auto;mix-blend-mode:normal;color-interpolation:sRGB;color-interpolation-filters:linearRGB;solid-color:#000000;solid-opacity:1;vector-effect:none;fill:#000000;fill-opacity:1;fill-rule:nonzero;stroke:none;stroke-width:200;stroke-linecap:round;stroke-linejoin:round;stroke-miterlimit:4;stroke-dasharray:none;stroke-dashoffset:0;stroke-opacity:1;color-rendering:auto;image-rendering:auto;shape-rendering:auto;text-rendering:auto;enable-background:accumulate" />
  </g>
</svg>
