<?xml version="1.0" encoding="UTF-8" standalone="no"?>
<svg
   xmlns:dc="http://purl.org/dc/elements/1.1/"
   xmlns:cc="http://creativecommons.org/ns#"
   xmlns:rdf="http://www.w3.org/1999/02/22-rdf-syntax-ns#"
   xmlns:svg="http://www.w3.org/2000/svg"
   xmlns="http://www.w3.org/2000/svg"
   id="svg8"
   version="1.1"
   viewBox="0 0 2400 2400"
   height="2400"
   width="2400">
  <defs
     id="defs2" />
  <metadata
     id="metadata5">
    <rdf:RDF>
      <cc:Work
         rdf:about="">
        <dc:format>image/svg+xml</dc:format>
        <dc:type
           rdf:resource="http://purl.org/dc/dcmitype/StillImage" />
        <dc:title></dc:title>
      </cc:Work>
    </rdf:RDF>
  </metadata>
  <g
     id="layer2">
    <path
       id="rect3041"
       d="M 400 200 C 289.2 200 200 289.2 200 400 L 200 900 C 200 1010.8 289.2 1100 400 1100 L 900 1100 C 1010.8 1100 1100 1010.8 1100 900 L 1100 400 C 1100 289.2 1010.8 200 900 200 L 400 200 z M 1750 200 A 450 450 0 0 0 1300 650 A 450 450 0 0 0 1750 1100 A 450 450 0 0 0 2200 650 A 450 450 0 0 0 1750 200 z M 650 1300 A 450 450 0 0 0 200 1750 A 450 450 0 0 0 650 2200 A 450 450 0 0 0 1100 1750 A 450 450 0 0 0 650 1300 z M 1500 1300 C 1389.2 1300 1300 1389.2 1300 1500 L 1300 2000 C 1300 2110.8 1389.2 2200 1500 2200 L 2000 2200 C 2110.8 2200 2200 2110.8 2200 2000 L 2200 1500 C 2200 1389.2 2110.8 1300 2000 1300 L 1500 1300 z "
       style="fill:#000000;fill-opacity:1;stroke:none;stroke-width:225;stroke-linecap:round;stroke-linejoin:round;stroke-miterlimit:4;stroke-dasharray:none;stroke-opacity:1;paint-order:normal" />
  </g>
</svg>
