<?xml version="1.0" encoding="UTF-8" standalone="no"?>
<!-- Created with Inkscape (http://www.inkscape.org/) -->

<svg
   xmlns:dc="http://purl.org/dc/elements/1.1/"
   xmlns:cc="http://creativecommons.org/ns#"
   xmlns:rdf="http://www.w3.org/1999/02/22-rdf-syntax-ns#"
   xmlns:svg="http://www.w3.org/2000/svg"
   xmlns="http://www.w3.org/2000/svg"
   xmlns:sodipodi="http://sodipodi.sourceforge.net/DTD/sodipodi-0.dtd"
   xmlns:inkscape="http://www.inkscape.org/namespaces/inkscape"
   width="2400"
   height="2400"
   viewBox="0 0 2400 2400"
   version="1.1"
   id="svg8"
   inkscape:version="0.92.2 2405546, 2018-03-11"
   sodipodi:docname="counter-clockwise.svg">
  <defs
     id="defs2" />
  <sodipodi:namedview
     id="base"
     pagecolor="#ffffff"
     bordercolor="#000000"
     borderopacity="1"
     inkscape:pageopacity="0.0"
     inkscape:pageshadow="2"
     inkscape:zoom="0.22627417"
     inkscape:cx="871.58779"
     inkscape:cy="1064.3349"
     inkscape:document-units="px"
     inkscape:current-layer="layer2"
     showgrid="true"
     units="px"
     inkscape:pagecheckerboard="false"
     inkscape:showpageshadow="false"
     showborder="true"
     inkscape:window-width="1920"
     inkscape:window-height="1022"
     inkscape:window-x="0"
     inkscape:window-y="0"
     inkscape:window-maximized="1"
     inkscape:snap-bbox="true"
     inkscape:bbox-nodes="true"
     showguides="false">
    <inkscape:grid
       type="xygrid"
       id="grid4518"
       dotted="false"
       spacingx="100"
       spacingy="100"
       originx="1200"
       originy="1200"
       empspacing="4"
       color="#ff7900"
       opacity="0.1254902"
       empcolor="#ff7900"
       empopacity="0.25098039" />
  </sodipodi:namedview>
  <metadata
     id="metadata5">
    <rdf:RDF>
      <cc:Work
         rdf:about="">
        <dc:format>image/svg+xml</dc:format>
        <dc:type
           rdf:resource="http://purl.org/dc/dcmitype/StillImage" />
        <dc:title></dc:title>
      </cc:Work>
    </rdf:RDF>
  </metadata>
  <g
     inkscape:groupmode="layer"
     id="layer2"
     inkscape:label="Icon">
    <path
       style="color:#000000;font-style:normal;font-variant:normal;font-weight:normal;font-stretch:normal;font-size:medium;line-height:normal;font-family:sans-serif;font-variant-ligatures:normal;font-variant-position:normal;font-variant-caps:normal;font-variant-numeric:normal;font-variant-alternates:normal;font-feature-settings:normal;text-indent:0;text-align:start;text-decoration:none;text-decoration-line:none;text-decoration-style:solid;text-decoration-color:#000000;letter-spacing:normal;word-spacing:normal;text-transform:none;writing-mode:lr-tb;direction:ltr;text-orientation:mixed;dominant-baseline:auto;baseline-shift:baseline;text-anchor:start;white-space:normal;shape-padding:0;clip-rule:nonzero;display:inline;overflow:visible;visibility:visible;opacity:1;isolation:auto;mix-blend-mode:normal;color-interpolation:sRGB;color-interpolation-filters:linearRGB;solid-color:#000000;solid-opacity:1;vector-effect:none;fill:#000000;fill-opacity:1;fill-rule:nonzero;stroke:none;stroke-width:200;stroke-linecap:round;stroke-linejoin:round;stroke-miterlimit:4;stroke-dasharray:none;stroke-dashoffset:0;stroke-opacity:1;paint-order:stroke fill markers;color-rendering:auto;image-rendering:auto;shape-rendering:auto;text-rendering:auto;enable-background:accumulate"
       d="M 1200.4492 300 C 1194.06 299.99684 1187.6765 300.06106 1181.2988 300.19336 C 989.96944 304.16886 804.46293 369.07997 652.11523 485.98047 C 489.61103 610.67427 374.47866 787.12003 325.79297 986.08203 C 277.10727 1185.0441 297.75649 1394.7147 384.32227 1580.3555 C 470.88804 1765.9964 618.23116 1916.5886 801.93945 2007.1836 C 985.64775 2097.7785 1194.8182 2122.9997 1394.7949 2078.666 C 1773.3089 1994.7515 2052.219 1678.2508 2094.4375 1299.998 L 2200 1299.998 C 2236.8761 1299.9908 2270.7559 1279.6924 2288.1562 1247.1797 C 2305.5567 1214.6671 2303.6541 1175.2162 2283.2051 1144.5293 L 2083.2051 844.5293 C 2064.6555 816.7138 2033.4334 800.00781 2000 800.00781 C 1966.5666 800.00781 1935.3445 816.7138 1916.7949 844.5293 L 1716.7949 1144.5293 C 1696.3459 1175.2162 1694.4434 1214.6671 1711.8438 1247.1797 C 1729.2442 1279.6924 1763.1239 1299.988 1800 1299.998 L 1892.8945 1299.998 C 1852.1217 1584.9425 1639.4304 1819.5754 1351.5078 1883.4062 C 1195.9387 1917.8952 1033.3118 1898.2876 890.39844 1827.8105 C 747.48511 1757.3335 632.92663 1640.2488 565.58398 1495.832 C 498.24134 1351.4153 482.18618 1188.3989 520.06055 1033.6191 C 557.93491 878.8394 647.44929 741.65429 773.86719 644.65039 C 900.28509 547.64649 1055.9612 496.68992 1215.2695 500.16602 C 1374.5779 503.64212 1527.8848 561.34178 1649.9512 663.76758 A 100.01 100.01 0 1 0 1778.5098 510.55859 C 1621.5993 378.89509 1424.4161 304.68129 1219.6328 300.21289 C 1213.2334 300.07324 1206.8384 300.00316 1200.4492 300 z "
       id="path4562" />
    <path
       style="color:#000000;font-style:normal;font-variant:normal;font-weight:normal;font-stretch:normal;font-size:medium;line-height:normal;font-family:sans-serif;font-variant-ligatures:normal;font-variant-position:normal;font-variant-caps:normal;font-variant-numeric:normal;font-variant-alternates:normal;font-feature-settings:normal;text-indent:0;text-align:start;text-decoration:none;text-decoration-line:none;text-decoration-style:solid;text-decoration-color:#000000;letter-spacing:normal;word-spacing:normal;text-transform:none;writing-mode:lr-tb;direction:ltr;text-orientation:mixed;dominant-baseline:auto;baseline-shift:baseline;text-anchor:start;white-space:normal;shape-padding:0;clip-rule:nonzero;display:inline;overflow:visible;visibility:visible;opacity:1;isolation:auto;mix-blend-mode:normal;color-interpolation:sRGB;color-interpolation-filters:linearRGB;solid-color:#000000;solid-opacity:1;vector-effect:none;fill:#000000;fill-opacity:1;fill-rule:nonzero;stroke:none;stroke-width:200;stroke-linecap:round;stroke-linejoin:round;stroke-miterlimit:4;stroke-dasharray:none;stroke-dashoffset:0;stroke-opacity:1;paint-order:stroke fill markers;color-rendering:auto;image-rendering:auto;shape-rendering:auto;text-rendering:auto;enable-background:accumulate"
       d="M 1298.4941,698.58789 A 100.01,100.01 0 0 0 1200,800 v 400 H 800 a 100.01,100.01 0 1 0 0,200 h 500 a 100.01,100.01 0 0 0 100,-100 V 800 A 100.01,100.01 0 0 0 1298.4941,698.58789 Z"
       id="path4564"
       inkscape:connector-curvature="0" />
  </g>
</svg>
