<?xml version="1.0" encoding="UTF-8" standalone="no"?>
<!-- Created with Inkscape (http://www.inkscape.org/) -->

<svg
   xmlns:dc="http://purl.org/dc/elements/1.1/"
   xmlns:cc="http://creativecommons.org/ns#"
   xmlns:rdf="http://www.w3.org/1999/02/22-rdf-syntax-ns#"
   xmlns:svg="http://www.w3.org/2000/svg"
   xmlns="http://www.w3.org/2000/svg"
   xmlns:sodipodi="http://sodipodi.sourceforge.net/DTD/sodipodi-0.dtd"
   xmlns:inkscape="http://www.inkscape.org/namespaces/inkscape"
   width="2400"
   height="2400"
   viewBox="0 0 2400 2400"
   version="1.1"
   id="svg8"
   inkscape:version="0.92.2 2405546, 2018-03-11"
   sodipodi:docname="sort-az.svg">
  <defs
     id="defs2" />
  <sodipodi:namedview
     id="base"
     pagecolor="#ffffff"
     bordercolor="#000000"
     borderopacity="1"
     inkscape:pageopacity="0.0"
     inkscape:pageshadow="2"
     inkscape:zoom="0.25"
     inkscape:cx="1452.6466"
     inkscape:cy="1158.8075"
     inkscape:document-units="px"
     inkscape:current-layer="layer2"
     showgrid="true"
     units="px"
     inkscape:pagecheckerboard="false"
     inkscape:showpageshadow="false"
     showborder="true"
     inkscape:window-width="1920"
     inkscape:window-height="1022"
     inkscape:window-x="0"
     inkscape:window-y="0"
     inkscape:window-maximized="1"
     inkscape:snap-bbox="true"
     inkscape:bbox-nodes="true">
    <inkscape:grid
       type="xygrid"
       id="grid4518"
       dotted="false"
       spacingx="100"
       spacingy="100"
       originx="1200"
       originy="1200"
       empspacing="4"
       color="#ff7900"
       opacity="0.1254902"
       empcolor="#ff7900"
       empopacity="0.25098039" />
  </sodipodi:namedview>
  <metadata
     id="metadata5">
    <rdf:RDF>
      <cc:Work
         rdf:about="">
        <dc:format>image/svg+xml</dc:format>
        <dc:type
           rdf:resource="http://purl.org/dc/dcmitype/StillImage" />
        <dc:title></dc:title>
      </cc:Work>
    </rdf:RDF>
  </metadata>
  <g
     inkscape:groupmode="layer"
     id="layer2"
     inkscape:label="Icon">
    <path
       style="color:#000000;font-style:normal;font-variant:normal;font-weight:normal;font-stretch:normal;font-size:medium;line-height:normal;font-family:sans-serif;font-variant-ligatures:normal;font-variant-position:normal;font-variant-caps:normal;font-variant-numeric:normal;font-variant-alternates:normal;font-feature-settings:normal;text-indent:0;text-align:start;text-decoration:none;text-decoration-line:none;text-decoration-style:solid;text-decoration-color:#000000;letter-spacing:normal;word-spacing:normal;text-transform:none;writing-mode:lr-tb;direction:ltr;text-orientation:mixed;dominant-baseline:auto;baseline-shift:baseline;text-anchor:start;white-space:normal;shape-padding:0;clip-rule:nonzero;display:inline;overflow:visible;visibility:visible;opacity:1;isolation:auto;mix-blend-mode:normal;color-interpolation:sRGB;color-interpolation-filters:linearRGB;solid-color:#000000;solid-opacity:1;vector-effect:none;fill:#000000;fill-opacity:1;fill-rule:nonzero;stroke:none;stroke-width:200;stroke-linecap:butt;stroke-linejoin:round;stroke-miterlimit:4;stroke-dasharray:none;stroke-dashoffset:0;stroke-opacity:1;color-rendering:auto;image-rendering:auto;shape-rendering:auto;text-rendering:auto;enable-background:accumulate"
       d="M 1698.4941 198.58789 A 100.01 100.01 0 0 0 1600 300 L 1600 1700 L 1500 1700 A 100.01 100.01 0 0 0 1416.7949 1855.4707 L 1616.7949 2155.4707 A 100.01 100.01 0 0 0 1783.2051 2155.4707 L 1983.2051 1855.4707 A 100.01 100.01 0 0 0 1900 1700 L 1800 1700 L 1800 300 A 100.01 100.01 0 0 0 1698.4941 198.58789 z M 796.56836 200.07422 A 100.01 100.01 0 0 0 708.08594 260.60742 L 408.08594 960.60742 A 100.01 100.01 0 1 0 591.91406 1039.3926 L 651.6543 900 L 948.3457 900 L 1008.0859 1039.3926 A 100.01 100.01 0 1 0 1191.9141 960.60742 L 891.91406 260.60742 A 100.01 100.01 0 0 0 796.56836 200.07422 z M 800 553.85938 L 862.63086 700 L 737.36914 700 L 800 553.85938 z M 500 1300 A 100.01 100.01 0 1 0 500 1500 L 882.57617 1500 L 424.07422 2034.9199 A 100.01 100.01 0 0 0 500 2200 L 1100 2200 A 100.01 100.01 0 1 0 1100 2000 L 717.42383 2000 L 1175.9258 1465.0801 A 100.01 100.01 0 0 0 1100 1300 L 500 1300 z "
       id="path846" />
  </g>
</svg>
