<?xml version="1.0" encoding="UTF-8" standalone="no"?>
<!-- Created with Inkscape (http://www.inkscape.org/) -->

<svg
   xmlns:dc="http://purl.org/dc/elements/1.1/"
   xmlns:cc="http://creativecommons.org/ns#"
   xmlns:rdf="http://www.w3.org/1999/02/22-rdf-syntax-ns#"
   xmlns:svg="http://www.w3.org/2000/svg"
   xmlns="http://www.w3.org/2000/svg"
   xmlns:sodipodi="http://sodipodi.sourceforge.net/DTD/sodipodi-0.dtd"
   xmlns:inkscape="http://www.inkscape.org/namespaces/inkscape"
   width="2400"
   height="2400"
   viewBox="0 0 2400 2400"
   version="1.1"
   id="svg8"
   inkscape:version="0.92.2 2405546, 2018-03-11"
   sodipodi:docname="warning.svg">
  <defs
     id="defs2" />
  <sodipodi:namedview
     id="base"
     pagecolor="#ffffff"
     bordercolor="#000000"
     borderopacity="1"
     inkscape:pageopacity="0.0"
     inkscape:pageshadow="2"
     inkscape:zoom="0.22627417"
     inkscape:cx="368.31893"
     inkscape:cy="703.23033"
     inkscape:document-units="px"
     inkscape:current-layer="layer2"
     showgrid="true"
     units="px"
     inkscape:pagecheckerboard="false"
     inkscape:showpageshadow="false"
     showborder="true"
     inkscape:window-width="1920"
     inkscape:window-height="1017"
     inkscape:window-x="0"
     inkscape:window-y="0"
     inkscape:window-maximized="1"
     inkscape:snap-bbox="true"
     inkscape:bbox-nodes="true">
    <inkscape:grid
       type="xygrid"
       id="grid4518"
       dotted="false"
       spacingx="100"
       spacingy="100"
       originx="1200"
       originy="1200"
       empspacing="4"
       color="#ff7900"
       opacity="0.1254902"
       empcolor="#ff7900"
       empopacity="0.25098039" />
  </sodipodi:namedview>
  <metadata
     id="metadata5">
    <rdf:RDF>
      <cc:Work
         rdf:about="">
        <dc:format>image/svg+xml</dc:format>
        <dc:type
           rdf:resource="http://purl.org/dc/dcmitype/StillImage" />
        <dc:title></dc:title>
      </cc:Work>
    </rdf:RDF>
  </metadata>
  <g
     inkscape:groupmode="layer"
     id="layer2"
     inkscape:label="Icon">
    <path
       style="fill:#000000;fill-opacity:1;stroke:none;stroke-width:200;stroke-linecap:round;stroke-linejoin:round;stroke-miterlimit:4;stroke-dasharray:none;stroke-opacity:1;paint-order:stroke fill markers"
       d="M 1200.6953 300.00781 A 100.01 100.01 0 0 0 1110.5566 355.27148 L 310.55664 1955.2715 A 100.01 100.01 0 0 0 400 2099.9941 L 2000 2099.9941 A 100.01 100.01 0 0 0 2089.4434 1955.2715 L 1289.4434 355.27148 A 100.01 100.01 0 0 0 1200.6953 300.00781 z M 1200 623.60156 L 1838.1953 1899.9941 L 561.80469 1899.9941 L 1200 623.60156 z M 1198.4941 898.58008 A 100.01 100.01 0 0 0 1100 999.99414 L 1100 1399.9941 A 100.01 100.01 0 1 0 1300 1399.9941 L 1300 999.99414 A 100.01 100.01 0 0 0 1198.4941 898.58008 z M 1200 1599.9941 A 100 100 0 0 0 1100 1699.9941 A 100 100 0 0 0 1200 1799.9941 A 100 100 0 0 0 1300 1699.9941 A 100 100 0 0 0 1200 1599.9941 z "
       id="path884" />
  </g>
</svg>
